<?xml version="1.0" encoding="UTF-8" standalone="no"?>
<svg
   width="16"
   height="16"
   version="1.1"
   id="svg1"
   sodipodi:docname="VRangeSlider.svg"
   inkscape:version="1.4.2 (f4327f4, 2025-05-13)"
   xmlns:inkscape="http://www.inkscape.org/namespaces/inkscape"
   xmlns:sodipodi="http://sodipodi.sourceforge.net/DTD/sodipodi-0.dtd"
   xmlns="http://www.w3.org/2000/svg"
   xmlns:svg="http://www.w3.org/2000/svg">
  <defs
     id="defs1" />
  <sodipodi:namedview
     id="namedview1"
     pagecolor="#ffffff"
     bordercolor="#000000"
     borderopacity="0.25"
     inkscape:showpageshadow="2"
     inkscape:pageopacity="0.0"
     inkscape:pagecheckerboard="0"
     inkscape:deskcolor="#d1d1d1"
     inkscape:zoom="22.627417"
     inkscape:cx="2.0992233"
     inkscape:cy="4.839262"
     inkscape:window-width="1920"
     inkscape:window-height="1017"
     inkscape:window-x="-8"
     inkscape:window-y="1072"
     inkscape:window-maximized="1"
     inkscape:current-layer="svg1" />
  <g
     id="g1"
     transform="rotate(90,8,8)">
    <path
       id="rect1"
       style="fill:#8eef97;fill-opacity:1;stroke-width:7.07768;stroke-linecap:round;paint-order:stroke fill markers"
       d="M 6,3 C 5.5,3 5,3.3333336 5,4 5,5.3333328 7,5.3333328 7,4 7,3.3333336 6.5,3 6,3 Z m 4,0 C 9.5,3 9,3.3333336 9,4 9,5.3333328 11,5.3333328 11,4 11,3.3333336 10.5,3 10,3 Z M 5.5,8 C 5.223,8 5,8.223 5,8.5 v 5 C 5,13.777 5.223,14 5.5,14 h 5 c 0.277,0 0.5,-0.223 0.5,-0.5 v -5 C 11,8.223 10.777,8 10.5,8 Z M 3.5234375,9 C 3.409479,8.9946075 3.2938924,9.0287435 3.1992188,9.0996094 L 1.2011719,10.599609 c -0.26720394,0.199902 -0.26720394,0.598927 0,0.798829 l 1.9980469,1.5 C 3.5289422,13.146618 4.0007247,12.910716 4,12.498047 V 9.5 C 3.9998281,9.3104802 3.8923544,9.1371403 3.7226562,9.0527344 3.6592005,9.0209837 3.5918126,9.0032355 3.5234375,9 Z m 8.9531245,0 c -0.06837,0.00324 -0.135762,0.020984 -0.199218,0.052734 C 12.107646,9.1371403 12.000172,9.3104802 12,9.5 v 2.998047 c -7.25e-4,0.412669 0.471058,0.648571 0.800781,0.400391 l 1.998047,-1.5 c 0.267204,-0.199902 0.267204,-0.598927 0,-0.798829 L 12.800781,9.0996094 C 12.706108,9.0287435 12.590521,8.9946075 12.476562,9 Z" />
    <g
       id="path2"
       transform="matrix(0.99957698,0,0,0.99950672,0.00507619,3.0029596)"
       style="stroke:none" />
    <path
       d="m 1,4.9999996 c 0,1.3333328 2,1.3333328 2,0 v -2 c 0,-1.3333328 -2,-1.3333328 -2,0 z"
       style="fill:#e06178;fill-opacity:1"
       id="path1-1" />
    <path
       d="m 13,4.9999996 c 0,1.3333328 2,1.3333328 2,0 v -2 c 0,-1.3333328 -2,-1.3333328 -2,0 z"
       style="fill:#c2ed66;fill-opacity:1"
       id="path1-5" />
    <g
       id="g4"
       transform="matrix(-0.99957698,0,0,0.99950672,15.994923,3.0029596)">
      <g
         id="path4"
         style="opacity:1" />
    </g>
  </g>
</svg>
